<svg width="300" height="87" viewBox="0 0 300 87" fill="none" xmlns="http://www.w3.org/2000/svg">
<g clip-path="url(#clip0_2001_7041)">
<path d="M99.6235 29.0504H109.105L122.201 66.3202H111.661L109.368 59.0247H99.306L97.0678 66.3202H86.4844L99.6235 29.0504ZM107.718 52.1832L104.351 40.6347L100.823 52.1832H107.718Z" fill="#424342"/>
<path d="M146.486 41.2282C145.421 40.6001 144.319 40.0389 143.186 39.5477C142.134 39.0898 141.059 38.691 139.964 38.353C138.834 37.9948 137.659 37.8083 136.475 37.7995C135.716 37.7675 134.96 37.9119 134.265 38.2216C134.003 38.3465 133.785 38.5486 133.638 38.8015C133.491 39.0544 133.423 39.3463 133.441 39.6393C133.436 39.8611 133.476 40.0817 133.558 40.2873C133.64 40.4928 133.763 40.6789 133.92 40.8339C134.326 41.2046 134.794 41.4974 135.303 41.6981C136.023 42.0014 136.762 42.2568 137.514 42.4627C138.384 42.7043 139.369 43.0016 140.47 43.3547C142.073 43.8275 143.644 44.4062 145.173 45.087C146.471 45.6505 147.682 46.4016 148.768 47.317C149.757 48.1649 150.54 49.2333 151.057 50.4391C151.62 51.8545 151.887 53.3734 151.841 54.8992C151.841 57.1399 151.424 59.0208 150.59 60.542C149.802 62.0148 148.668 63.2676 147.29 64.1898C145.874 65.1224 144.305 65.79 142.657 66.161C140.953 66.5602 139.211 66.7619 137.463 66.7623C136.037 66.7598 134.613 66.6547 133.202 66.4477C130.297 66.0244 127.449 65.2669 124.712 64.1898C123.434 63.6931 122.195 63.0966 121.008 62.4057L125.519 53.4576C126.765 54.2317 128.063 54.9156 129.404 55.5045C130.655 56.0732 131.945 56.547 133.265 56.9222C134.693 57.3414 136.172 57.5532 137.659 57.5514C138.796 57.5514 139.58 57.4027 140.011 57.1054C140.217 56.9853 140.388 56.811 140.505 56.6008C140.623 56.3906 140.682 56.1522 140.677 55.9107C140.679 55.6512 140.62 55.395 140.506 55.1627C140.393 54.9303 140.227 54.7282 140.023 54.5727C139.471 54.1441 138.85 53.8154 138.188 53.601C137.404 53.3222 136.511 53.0395 135.499 52.7607C134.488 52.482 133.414 52.1475 132.277 51.7652C130.793 51.2829 129.351 50.6768 127.965 49.9533C126.864 49.3824 125.858 48.6378 124.986 47.7471C124.219 46.9547 123.628 46.004 123.254 44.9595C122.864 43.7946 122.676 42.5699 122.697 41.3397C122.658 39.4543 123.05 37.5854 123.842 35.88C124.571 34.3441 125.636 32.9973 126.954 31.9416C128.301 30.8768 129.825 30.0674 131.454 29.5522C133.188 29.0085 134.994 28.7399 136.808 28.7558C138.166 28.7546 139.521 28.888 140.854 29.154C142.14 29.411 143.411 29.7434 144.66 30.1496C145.887 30.5478 147.012 30.9898 148.097 31.4637C149.183 31.9376 150.12 32.3836 150.971 32.8017L146.486 41.2282Z" fill="#424342"/>
<path d="M184.56 37.9746H173.699V66.3202H163.315V37.9746H152.398V29.0504H184.541L184.56 37.9746Z" fill="#424342"/>
<path d="M213.952 57.396V66.3202H187.008V29.0505H213.474V37.9747H197.403V43.2233H211.142V51.5183H197.403V57.396H213.952ZM203.675 27.4934L197.285 25.8129L199.947 18.3582H208.962L203.675 27.4934Z" fill="#424342"/>
<path d="M217.465 66.3203V29.0505H234.826C236.586 29.0352 238.327 29.4217 239.921 30.1814C241.432 30.8951 242.796 31.8922 243.943 33.1203C245.061 34.3285 245.954 35.7332 246.577 37.2659C247.202 38.7515 247.529 40.3492 247.537 41.9649C247.552 44.0743 247.058 46.1553 246.099 48.0259C245.166 49.8713 243.793 51.4498 242.105 52.6174L250.093 66.3203H238.408L231.745 54.8753H227.86V66.3203H217.465ZM227.852 45.9511H234.398C235.041 45.9511 235.633 45.6047 236.186 44.9038C236.738 44.2029 237.009 43.2233 237.009 41.9649C237.009 40.7065 236.691 39.6791 236.052 38.9981C235.413 38.3172 234.775 37.9747 234.136 37.9747H227.864L227.852 45.9511Z" fill="#424342"/>
<path d="M252.078 66.3202V29.0504H262.466V66.3202H252.078Z" fill="#424342"/>
<path d="M277.424 29.0504H286.902L300.002 66.3202H289.458L287.169 59.0247H277.103L274.861 66.3202H264.277L277.424 29.0504ZM285.519 52.1832L282.163 40.6347L278.635 52.1832H285.519Z" fill="#424342"/>
<path fill-rule="evenodd" clip-rule="evenodd" d="M22.118 39.2371C16.1561 39.9857 12.6361 42.6618 11.3661 50.3873C10.441 50.013 9.51988 49.6387 8.62225 49.2644C4.85143 47.7033 -0.471633 44.8281 0.037938 40.0295C0.535749 35.3146 6.03127 33.7416 9.97848 33.0646C13.863 32.3916 18.0924 31.7544 21.8711 30.6753C23.439 30.2133 25.4694 29.5284 26.6258 28.2859C27.8644 26.9638 28.4132 24.678 28.7503 22.9696C28.9816 21.8028 29.1775 20.6042 29.3422 19.3856C29.6283 17.3268 29.8361 15.2281 30.0321 13.1574C36.6643 12.2853 39.9922 15.3914 43.0065 21.3329L42.5322 20.4489C40.3214 16.3432 38.6987 18.4299 38.3381 22.0657C38.2087 23.3639 38.0911 24.5426 37.9774 25.6218C36.8289 36.4615 35.8647 36.8159 23.392 38.9663C22.9216 39.0419 22.5022 39.1415 22.118 39.2371Z" fill="url(#paint0_linear_2001_7041)"/>
<path fill-rule="evenodd" clip-rule="evenodd" d="M43.0018 21.3408C39.9875 15.3993 36.6596 12.2932 30.0273 13.1653C30.1332 12.0343 30.239 10.9113 30.3488 9.80826C30.7172 6.09283 32.0343 0.999546 36.3852 0.119471C40.3599 -0.676977 43.088 2.69996 44.7265 5.74239C46.9333 9.84012 49.1558 14.2962 51.7194 18.1749C52.7346 19.7201 54.2045 21.7868 55.9606 22.5912C57.5638 23.324 59.7667 23.1926 61.4718 23.0134C63.0828 22.8421 64.733 22.5793 66.3833 22.2687C68.888 21.7988 71.4006 21.2214 73.8034 20.7037L74.1091 20.64C75.8534 26.6691 72.4668 30.5956 66.2108 35.5096C68.9546 32.5946 67.861 30.269 63.659 31.169L62.9809 31.3163C49.7948 34.1397 49.7046 33.8132 43.0018 21.3408Z" fill="url(#paint1_linear_2001_7041)"/>
<path fill-rule="evenodd" clip-rule="evenodd" d="M66.2127 35.5097C72.4844 30.6116 75.8554 26.6691 74.1111 20.64C77.8231 19.9113 82.3426 20.1821 84.4083 23.8258C86.576 27.6368 84.1692 31.8461 81.445 34.6217C78.6384 37.4769 75.534 40.5034 73.0645 43.6375C72.0258 44.9636 70.7675 46.7237 70.5559 48.4361C70.3246 50.3316 71.3398 52.6493 72.1238 54.3178C72.6921 55.5125 73.2997 56.7072 73.97 57.9019C75.1145 59.9846 76.3571 62.0553 77.5801 64.0903C72.1316 67.5548 67.8277 66.2327 62.6065 62.3102C64.7428 62.7841 65.9893 61.8841 64.245 58.9372C63.6218 57.874 63.0416 56.9023 62.5125 55.9983C56.429 45.6724 56.8523 45.0432 66.0403 35.6889L66.2127 35.5097Z" fill="url(#paint2_linear_2001_7041)"/>
<path fill-rule="evenodd" clip-rule="evenodd" d="M62.6121 62.2982C67.8332 66.2207 72.1371 67.5428 77.5856 64.0783C78.1187 64.9663 78.6479 65.8464 79.1535 66.7185C80.8939 69.6574 82.1561 73.552 79.4867 76.4113C76.5038 79.5971 71.4826 78.279 68.0723 76.6263C64.1526 74.7228 59.9741 72.5605 55.8818 71.0313C54.2277 70.418 51.9621 69.6733 50.1786 70.0158C48.5009 70.3304 46.8507 71.6565 45.6199 72.7436C44.389 73.8308 43.2092 75.0016 42.045 76.2241C41.0298 77.2914 40.0342 78.3825 39.0621 79.4657C32.6062 75.2843 31.5557 71.0791 33.1824 65.488C33.2726 68.618 34.9777 68.7375 38.1723 65.2092C39.0817 64.2057 39.9009 63.3057 40.6535 62.4973C47.5758 55.0784 48.7792 55.8549 60.6208 61.5894C61.2554 61.903 61.9236 62.1409 62.6121 62.2982V62.2982Z" fill="url(#paint3_linear_2001_7041)"/>
<path fill-rule="evenodd" clip-rule="evenodd" d="M23.9065 57.1093C23.2127 55.8868 21.2881 54.8474 20.0848 54.2262C18.462 53.3939 16.749 52.6333 15.0126 51.8926C13.8014 51.3829 12.5784 50.8851 11.3672 50.3953C12.6372 42.6618 16.1571 39.9857 22.1191 39.245C17.7368 40.3481 18.6227 42.4706 23.0873 44.3184L26.4387 45.7082C30.7034 47.4882 32.9573 48.5873 33.9647 50.3594C35.1955 52.5576 34.5095 55.7952 33.4433 62.6526C33.2856 63.5918 33.2095 64.5432 33.216 65.4959C31.5697 71.0711 32.6202 75.2922 39.0957 79.4736C38.4959 80.1386 37.9197 80.8037 37.3161 81.4647C34.6506 84.4076 30.331 88.5173 25.9487 86.4744C21.4371 84.3757 22.029 78.0798 22.6287 74.0856C23.2284 70.0914 24.0672 65.8623 24.3847 61.8402C24.4631 60.4982 24.5886 58.3199 23.9065 57.1093Z" fill="url(#paint4_linear_2001_7041)"/>
</g>
<defs>
<linearGradient id="paint0_linear_2001_7041" x1="9.48373" y1="61.0117" x2="29.2098" y2="4.16689" gradientUnits="userSpaceOnUse">
<stop stop-color="#FAC600"/>
<stop offset="0.32" stop-color="#F2A000"/>
<stop offset="0.7" stop-color="#ED8500"/>
<stop offset="1" stop-color="#CC4C01"/>
</linearGradient>
<linearGradient id="paint1_linear_2001_7041" x1="39.7971" y1="-5.27423" x2="63.0593" y2="34.109" gradientUnits="userSpaceOnUse">
<stop stop-color="#FAC600"/>
<stop offset="0.32" stop-color="#F2A000"/>
<stop offset="0.7" stop-color="#ED8500"/>
<stop offset="1" stop-color="#CC4C01"/>
</linearGradient>
<linearGradient id="paint2_linear_2001_7041" x1="80.2197" y1="7.3403" x2="63.8409" y2="60.6683" gradientUnits="userSpaceOnUse">
<stop stop-color="#ED8500"/>
<stop offset="0.32" stop-color="#F2A000"/>
<stop offset="0.7" stop-color="#ED8500"/>
<stop offset="1" stop-color="#CC4C01"/>
</linearGradient>
<linearGradient id="paint3_linear_2001_7041" x1="71.4529" y1="58.1207" x2="35.8544" y2="79.7198" gradientUnits="userSpaceOnUse">
<stop stop-color="#FAC600"/>
<stop offset="0.32" stop-color="#F2A000"/>
<stop offset="0.7" stop-color="#ED8500"/>
<stop offset="1" stop-color="#CC4C01"/>
</linearGradient>
<linearGradient id="paint4_linear_2001_7041" x1="37.9872" y1="85.3672" x2="17.0452" y2="44.0383" gradientUnits="userSpaceOnUse">
<stop stop-color="#FAC600"/>
<stop offset="0.32" stop-color="#F2A000"/>
<stop offset="0.7" stop-color="#ED8500"/>
<stop offset="1" stop-color="#CC4C01"/>
</linearGradient>
<clipPath id="clip0_2001_7041">
<rect width="300" height="87" fill="white"/>
</clipPath>
</defs>
</svg>
